<svg width="183" height="30" viewBox="0 0 183 30" fill="none" xmlns="http://www.w3.org/2000/svg">
<path d="M24.2891 10.6191C24.2891 10.0723 24.4746 9.61328 24.8457 9.24219C25.2363 8.85156 25.7051 8.65625 26.252 8.65625H43.3027C43.8496 8.65625 44.3184 8.8418 44.709 9.21289C45.0801 9.60352 45.2656 10.0723 45.2656 10.6191C45.2656 11.166 45.0703 11.6348 44.6797 12.0254C44.3086 12.3965 43.8496 12.582 43.3027 12.582H36.7695V24.4473C36.6523 25.6191 36.0078 26.2539 34.8359 26.3516C34.2891 26.3516 33.8105 26.1758 33.4004 25.8242C33.0098 25.4531 32.8145 24.9941 32.8145 24.4473V12.582H26.252C25.7051 12.582 25.2461 12.3867 24.875 11.9961C24.4844 11.625 24.2891 11.166 24.2891 10.6191ZM54.3477 25.9414C52.6289 25.8828 51.3301 25.4824 50.4512 24.7402C49.5723 23.9785 48.9375 23.1289 48.5469 22.1914C48.1562 21.2344 47.9609 20.2676 47.9609 19.291C47.9609 18.2754 48.1465 17.2988 48.5176 16.3613C48.9082 15.4043 49.543 14.5547 50.4219 13.8125C51.3203 13.0508 52.4531 12.6602 53.8203 12.6406H64.9531C65.5 12.6406 65.959 12.8262 66.3301 13.1973C66.7207 13.5488 66.916 13.9785 66.916 14.4863C66.916 15.0137 66.7207 15.4629 66.3301 15.834C65.959 16.1855 65.5 16.3613 64.9531 16.3613H53.9961C53.5664 16.3613 53.1855 16.5078 52.8535 16.8008C52.541 17.0938 52.3066 17.4746 52.1504 17.9434C52.0137 18.4121 51.9453 18.8711 51.9453 19.3203C51.9453 19.8086 52.0137 20.2871 52.1504 20.7559C52.3066 21.2246 52.541 21.6055 52.8535 21.8984C53.1855 22.1719 53.5664 22.3184 53.9961 22.3379H64.9531C65.5 22.3379 65.959 22.5137 66.3301 22.8652C66.7207 23.2168 66.916 23.6367 66.916 24.125C66.916 24.6328 66.7207 25.0625 66.3301 25.4141C65.959 25.7656 65.5 25.9414 64.9531 25.9414H54.3477ZM66.5645 19.2324C66.5645 19.6035 66.3984 19.9258 66.0664 20.1992C65.7734 20.4531 65.4023 20.5801 64.9531 20.5801H55.373C54.9238 20.5801 54.543 20.4531 54.2305 20.1992C53.918 19.9258 53.7617 19.6035 53.7617 19.2324C53.7617 18.8809 53.918 18.5684 54.2305 18.2949C54.543 18.041 54.9238 17.9141 55.373 17.9141H64.9531C65.4023 17.9141 65.7832 18.0508 66.0957 18.3242C66.4082 18.5781 66.5645 18.8809 66.5645 19.2324ZM76.2324 25.9414C74.5137 25.8828 73.2148 25.4824 72.3359 24.7402C71.457 23.9785 70.8223 23.1289 70.4316 22.1914C70.041 21.2344 69.8457 20.2676 69.8457 19.291C69.8457 18.2754 70.0312 17.2988 70.4023 16.3613C70.793 15.4043 71.4277 14.5547 72.3066 13.8125C73.2051 13.0508 74.3379 12.6602 75.7051 12.6406H86.8379C87.3848 12.6406 87.8438 12.8359 88.2148 13.2266C88.6055 13.5977 88.8008 14.0566 88.8008 14.6035C88.8008 15.1504 88.6055 15.6191 88.2148 16.0098C87.8438 16.3809 87.3848 16.5664 86.8379 16.5664H75.5879C75.2168 16.5664 74.8945 16.7227 74.6211 17.0352C74.3477 17.3281 74.1426 17.6797 74.0059 18.0898C73.8887 18.4805 73.8301 18.8711 73.8301 19.2617C73.8301 19.6719 73.8887 20.082 74.0059 20.4922C74.1426 20.8828 74.3477 21.2344 74.6211 21.5469C74.8945 21.8398 75.2168 21.9961 75.5879 22.0156H86.8379C87.3848 22.0156 87.8438 22.2109 88.2148 22.6016C88.6055 22.9727 88.8008 23.4316 88.8008 23.9785C88.8008 24.5254 88.6055 24.9844 88.2148 25.3555C87.8438 25.7461 87.3848 25.9414 86.8379 25.9414H76.2324ZM93.8984 8.1875C94.4258 8.20703 94.875 8.40234 95.2461 8.77344C95.6172 9.125 95.8125 9.56445 95.832 10.0918V12.6406H104.914C106.281 12.6602 107.404 13.0508 108.283 13.8125C109.182 14.5547 109.816 15.3945 110.188 16.332C110.578 17.2891 110.773 18.2754 110.773 19.291H110.803V24.3887C110.803 24.9355 110.598 25.3945 110.188 25.7656C109.797 26.1172 109.328 26.293 108.781 26.293C107.609 26.1953 106.965 25.5605 106.848 24.3887V19.2617C106.848 18.8906 106.77 18.5 106.613 18.0898C106.477 17.6797 106.271 17.3281 105.998 17.0352C105.725 16.7227 105.402 16.5664 105.031 16.5664H95.832V24.4473C95.7148 25.6191 95.0703 26.2539 93.8984 26.3516C93.3516 26.3516 92.873 26.1758 92.4629 25.8242C92.0723 25.4531 91.877 24.9941 91.877 24.4473V10.0918C91.8965 9.54492 92.1016 9.0957 92.4922 8.74414C92.8828 8.37305 93.3516 8.1875 93.8984 8.1875Z" fill="white"/>
<path d="M118.449 24.3887C118.332 25.5605 117.688 26.1953 116.516 26.293C115.969 26.293 115.49 26.1172 115.08 25.7656C114.689 25.3945 114.494 24.9355 114.494 24.3887V10.5605C114.514 10.0137 114.719 9.56445 115.109 9.21289C115.5 8.8418 115.969 8.65625 116.516 8.65625H128.82C130.539 8.71484 131.838 9.0957 132.717 9.79883C133.596 10.4824 134.23 11.2637 134.621 12.1426C135.012 13.0215 135.207 13.9102 135.207 14.8086C135.207 15.7461 135.012 16.6543 134.621 17.5332C134.25 18.4121 133.615 19.2031 132.717 19.9062C131.838 20.5898 130.715 20.9219 129.348 20.9023H121.965C121.418 20.9023 120.959 20.707 120.588 20.3164C120.197 19.9453 120.002 19.4863 120.002 18.9395C120.002 18.3926 120.188 17.9336 120.559 17.5625C120.949 17.1719 121.418 16.9766 121.965 16.9766H129.523C129.895 16.9766 130.197 16.8594 130.432 16.625C130.686 16.3711 130.871 16.0879 130.988 15.7754C131.105 15.4434 131.164 15.1113 131.164 14.7793C131.164 14.4668 131.105 14.1543 130.988 13.8418C130.871 13.5098 130.686 13.2266 130.432 12.9922C130.197 12.7383 129.895 12.6016 129.523 12.582H119.211C118.703 12.6016 118.449 12.8555 118.449 13.3438V24.3887ZM138.928 16.332C139.299 15.3945 139.924 14.5547 140.803 13.8125C141.701 13.0508 142.834 12.6602 144.201 12.6406H155.217C155.764 12.6406 156.223 12.8359 156.594 13.2266C156.984 13.5977 157.18 14.0566 157.18 14.6035C157.18 15.1504 156.984 15.6191 156.594 16.0098C156.223 16.3809 155.764 16.5664 155.217 16.5664H144.084C143.713 16.5664 143.391 16.7227 143.117 17.0352C142.844 17.3281 142.629 17.6797 142.473 18.0898C142.336 18.5 142.268 18.8906 142.268 19.2617V24.3887C142.15 25.5605 141.506 26.1953 140.334 26.293C139.787 26.293 139.309 26.1172 138.898 25.7656C138.508 25.3945 138.312 24.9355 138.312 24.3887V19.291H138.342C138.342 18.2754 138.537 17.2891 138.928 16.332ZM166.145 25.9414C164.426 25.8828 163.127 25.4824 162.248 24.7402C161.369 23.9785 160.734 23.1289 160.344 22.1914C159.953 21.2344 159.758 20.2676 159.758 19.291C159.758 18.2754 159.943 17.2988 160.314 16.3613C160.705 15.4043 161.34 14.5547 162.219 13.8125C163.117 13.0508 164.25 12.6602 165.617 12.6406H175.109C176.477 12.6602 177.6 13.0508 178.479 13.8125C179.377 14.5547 180.012 15.4043 180.383 16.3613C180.773 17.2988 180.969 18.2754 180.969 19.291C180.969 20.2676 180.773 21.2344 180.383 22.1914C179.992 23.1289 179.357 23.9785 178.479 24.7402C177.6 25.4824 176.301 25.8828 174.582 25.9414H166.145ZM165.5 16.5664C165.129 16.5664 164.807 16.7227 164.533 17.0352C164.26 17.3281 164.055 17.6797 163.918 18.0898C163.801 18.4805 163.742 18.8711 163.742 19.2617C163.742 19.6719 163.801 20.082 163.918 20.4922C164.055 20.8828 164.26 21.2344 164.533 21.5469C164.807 21.8398 165.129 21.9961 165.5 22.0156H175.227C175.598 21.9961 175.92 21.8398 176.193 21.5469C176.467 21.2344 176.662 20.8828 176.779 20.4922C176.916 20.082 176.984 19.6719 176.984 19.2617C176.984 18.8711 176.916 18.4805 176.779 18.0898C176.662 17.6797 176.467 17.3281 176.193 17.0352C175.92 16.7227 175.598 16.5664 175.227 16.5664H165.5Z" fill="#5429FF"/>
<rect x="1" y="7" width="20" height="20" rx="10" fill="white" stroke="black" stroke-width="2"/>
<path d="M4.38672 15.3857C4.38672 15.2217 4.44238 15.084 4.55371 14.9727C4.6709 14.8555 4.81152 14.7969 4.97559 14.7969H10.0908C10.2549 14.7969 10.3955 14.8525 10.5127 14.9639C10.624 15.0811 10.6797 15.2217 10.6797 15.3857C10.6797 15.5498 10.6211 15.6904 10.5039 15.8076C10.3926 15.9189 10.2549 15.9746 10.0908 15.9746H8.13086V19.5342C8.0957 19.8857 7.90234 20.0762 7.55078 20.1055C7.38672 20.1055 7.24316 20.0527 7.12012 19.9473C7.00293 19.8359 6.94434 19.6982 6.94434 19.5342V15.9746H4.97559C4.81152 15.9746 4.67383 15.916 4.5625 15.7988C4.44531 15.6875 4.38672 15.5498 4.38672 15.3857Z" fill="black"/>
<path d="M12.7891 19.5166C12.7539 19.8682 12.5605 20.0586 12.209 20.0879C12.0449 20.0879 11.9014 20.0352 11.7783 19.9297C11.6611 19.8184 11.6025 19.6807 11.6025 19.5166V15.3682C11.6084 15.2041 11.6699 15.0693 11.7871 14.9639C11.9043 14.8525 12.0449 14.7969 12.209 14.7969H15.9004C16.416 14.8145 16.8057 14.9287 17.0693 15.1396C17.333 15.3447 17.5234 15.5791 17.6406 15.8428C17.7578 16.1064 17.8164 16.373 17.8164 16.6426C17.8164 16.9238 17.7578 17.1963 17.6406 17.46C17.5293 17.7236 17.3389 17.9609 17.0693 18.1719C16.8057 18.377 16.4688 18.4766 16.0586 18.4707H13.8438C13.6797 18.4707 13.542 18.4121 13.4307 18.2949C13.3135 18.1836 13.2549 18.0459 13.2549 17.8818C13.2549 17.7178 13.3105 17.5801 13.4219 17.4688C13.5391 17.3516 13.6797 17.293 13.8438 17.293H16.1113C16.2227 17.293 16.3135 17.2578 16.3838 17.1875C16.46 17.1113 16.5156 17.0264 16.5508 16.9326C16.5859 16.833 16.6035 16.7334 16.6035 16.6338C16.6035 16.54 16.5859 16.4463 16.5508 16.3525C16.5156 16.2529 16.46 16.168 16.3838 16.0977C16.3135 16.0215 16.2227 15.9805 16.1113 15.9746H13.0176C12.8652 15.9805 12.7891 16.0566 12.7891 16.2031V19.5166Z" fill="#5429FF"/>
</svg>
