<svg width="157" height="19" viewBox="0 0 157 19" fill="none" xmlns="http://www.w3.org/2000/svg">
<path d="M0.289062 2.61914C0.289062 2.07227 0.474609 1.61328 0.845703 1.24219C1.23633 0.851562 1.70508 0.65625 2.25195 0.65625H19.3027C19.8496 0.65625 20.3184 0.841797 20.709 1.21289C21.0801 1.60352 21.2656 2.07227 21.2656 2.61914C21.2656 3.16602 21.0703 3.63477 20.6797 4.02539C20.3086 4.39648 19.8496 4.58203 19.3027 4.58203H12.7695V16.4473C12.6523 17.6191 12.0078 18.2539 10.8359 18.3516C10.2891 18.3516 9.81055 18.1758 9.40039 17.8242C9.00977 17.4531 8.81445 16.9941 8.81445 16.4473V4.58203H2.25195C1.70508 4.58203 1.24609 4.38672 0.875 3.99609C0.484375 3.625 0.289062 3.16602 0.289062 2.61914ZM30.3477 17.9414C28.6289 17.8828 27.3301 17.4824 26.4512 16.7402C25.5723 15.9785 24.9375 15.1289 24.5469 14.1914C24.1562 13.2344 23.9609 12.2676 23.9609 11.291C23.9609 10.2754 24.1465 9.29883 24.5176 8.36133C24.9082 7.4043 25.543 6.55469 26.4219 5.8125C27.3203 5.05078 28.4531 4.66016 29.8203 4.64062H40.9531C41.5 4.64062 41.959 4.82617 42.3301 5.19727C42.7207 5.54883 42.916 5.97852 42.916 6.48633C42.916 7.01367 42.7207 7.46289 42.3301 7.83398C41.959 8.18555 41.5 8.36133 40.9531 8.36133H29.9961C29.5664 8.36133 29.1855 8.50781 28.8535 8.80078C28.541 9.09375 28.3066 9.47461 28.1504 9.94336C28.0137 10.4121 27.9453 10.8711 27.9453 11.3203C27.9453 11.8086 28.0137 12.2871 28.1504 12.7559C28.3066 13.2246 28.541 13.6055 28.8535 13.8984C29.1855 14.1719 29.5664 14.3184 29.9961 14.3379H40.9531C41.5 14.3379 41.959 14.5137 42.3301 14.8652C42.7207 15.2168 42.916 15.6367 42.916 16.125C42.916 16.6328 42.7207 17.0625 42.3301 17.4141C41.959 17.7656 41.5 17.9414 40.9531 17.9414H30.3477ZM42.5645 11.2324C42.5645 11.6035 42.3984 11.9258 42.0664 12.1992C41.7734 12.4531 41.4023 12.5801 40.9531 12.5801H31.373C30.9238 12.5801 30.543 12.4531 30.2305 12.1992C29.918 11.9258 29.7617 11.6035 29.7617 11.2324C29.7617 10.8809 29.918 10.5684 30.2305 10.2949C30.543 10.041 30.9238 9.91406 31.373 9.91406H40.9531C41.4023 9.91406 41.7832 10.0508 42.0957 10.3242C42.4082 10.5781 42.5645 10.8809 42.5645 11.2324ZM52.2324 17.9414C50.5137 17.8828 49.2148 17.4824 48.3359 16.7402C47.457 15.9785 46.8223 15.1289 46.4316 14.1914C46.041 13.2344 45.8457 12.2676 45.8457 11.291C45.8457 10.2754 46.0312 9.29883 46.4023 8.36133C46.793 7.4043 47.4277 6.55469 48.3066 5.8125C49.2051 5.05078 50.3379 4.66016 51.7051 4.64062H62.8379C63.3848 4.64062 63.8438 4.83594 64.2148 5.22656C64.6055 5.59766 64.8008 6.05664 64.8008 6.60352C64.8008 7.15039 64.6055 7.61914 64.2148 8.00977C63.8438 8.38086 63.3848 8.56641 62.8379 8.56641H51.5879C51.2168 8.56641 50.8945 8.72266 50.6211 9.03516C50.3477 9.32812 50.1426 9.67969 50.0059 10.0898C49.8887 10.4805 49.8301 10.8711 49.8301 11.2617C49.8301 11.6719 49.8887 12.082 50.0059 12.4922C50.1426 12.8828 50.3477 13.2344 50.6211 13.5469C50.8945 13.8398 51.2168 13.9961 51.5879 14.0156H62.8379C63.3848 14.0156 63.8438 14.2109 64.2148 14.6016C64.6055 14.9727 64.8008 15.4316 64.8008 15.9785C64.8008 16.5254 64.6055 16.9844 64.2148 17.3555C63.8438 17.7461 63.3848 17.9414 62.8379 17.9414H52.2324ZM69.8984 0.1875C70.4258 0.207031 70.875 0.402344 71.2461 0.773438C71.6172 1.125 71.8125 1.56445 71.832 2.0918V4.64062H80.9141C82.2812 4.66016 83.4043 5.05078 84.2832 5.8125C85.1816 6.55469 85.8164 7.39453 86.1875 8.33203C86.5781 9.28906 86.7734 10.2754 86.7734 11.291H86.8027V16.3887C86.8027 16.9355 86.5977 17.3945 86.1875 17.7656C85.7969 18.1172 85.3281 18.293 84.7812 18.293C83.6094 18.1953 82.9648 17.5605 82.8477 16.3887V11.2617C82.8477 10.8906 82.7695 10.5 82.6133 10.0898C82.4766 9.67969 82.2715 9.32812 81.998 9.03516C81.7246 8.72266 81.4023 8.56641 81.0312 8.56641H71.832V16.4473C71.7148 17.6191 71.0703 18.2539 69.8984 18.3516C69.3516 18.3516 68.873 18.1758 68.4629 17.8242C68.0723 17.4531 67.877 16.9941 67.877 16.4473V2.0918C67.8965 1.54492 68.1016 1.0957 68.4922 0.744141C68.8828 0.373047 69.3516 0.1875 69.8984 0.1875Z" fill="white"/>
<path d="M94.4492 16.3887C94.332 17.5605 93.6875 18.1953 92.5156 18.293C91.9688 18.293 91.4902 18.1172 91.0801 17.7656C90.6895 17.3945 90.4941 16.9355 90.4941 16.3887V2.56055C90.5137 2.01367 90.7188 1.56445 91.1094 1.21289C91.5 0.841797 91.9688 0.65625 92.5156 0.65625H104.82C106.539 0.714844 107.838 1.0957 108.717 1.79883C109.596 2.48242 110.23 3.26367 110.621 4.14258C111.012 5.02148 111.207 5.91016 111.207 6.80859C111.207 7.74609 111.012 8.6543 110.621 9.5332C110.25 10.4121 109.615 11.2031 108.717 11.9062C107.838 12.5898 106.715 12.9219 105.348 12.9023H97.9648C97.418 12.9023 96.959 12.707 96.5879 12.3164C96.1973 11.9453 96.002 11.4863 96.002 10.9395C96.002 10.3926 96.1875 9.93359 96.5586 9.5625C96.9492 9.17188 97.418 8.97656 97.9648 8.97656H105.523C105.895 8.97656 106.197 8.85938 106.432 8.625C106.686 8.37109 106.871 8.08789 106.988 7.77539C107.105 7.44336 107.164 7.11133 107.164 6.7793C107.164 6.4668 107.105 6.1543 106.988 5.8418C106.871 5.50977 106.686 5.22656 106.432 4.99219C106.197 4.73828 105.895 4.60156 105.523 4.58203H95.2109C94.7031 4.60156 94.4492 4.85547 94.4492 5.34375V16.3887ZM114.928 8.33203C115.299 7.39453 115.924 6.55469 116.803 5.8125C117.701 5.05078 118.834 4.66016 120.201 4.64062H131.217C131.764 4.64062 132.223 4.83594 132.594 5.22656C132.984 5.59766 133.18 6.05664 133.18 6.60352C133.18 7.15039 132.984 7.61914 132.594 8.00977C132.223 8.38086 131.764 8.56641 131.217 8.56641H120.084C119.713 8.56641 119.391 8.72266 119.117 9.03516C118.844 9.32812 118.629 9.67969 118.473 10.0898C118.336 10.5 118.268 10.8906 118.268 11.2617V16.3887C118.15 17.5605 117.506 18.1953 116.334 18.293C115.787 18.293 115.309 18.1172 114.898 17.7656C114.508 17.3945 114.312 16.9355 114.312 16.3887V11.291H114.342C114.342 10.2754 114.537 9.28906 114.928 8.33203ZM142.145 17.9414C140.426 17.8828 139.127 17.4824 138.248 16.7402C137.369 15.9785 136.734 15.1289 136.344 14.1914C135.953 13.2344 135.758 12.2676 135.758 11.291C135.758 10.2754 135.943 9.29883 136.314 8.36133C136.705 7.4043 137.34 6.55469 138.219 5.8125C139.117 5.05078 140.25 4.66016 141.617 4.64062H151.109C152.477 4.66016 153.6 5.05078 154.479 5.8125C155.377 6.55469 156.012 7.4043 156.383 8.36133C156.773 9.29883 156.969 10.2754 156.969 11.291C156.969 12.2676 156.773 13.2344 156.383 14.1914C155.992 15.1289 155.357 15.9785 154.479 16.7402C153.6 17.4824 152.301 17.8828 150.582 17.9414H142.145ZM141.5 8.56641C141.129 8.56641 140.807 8.72266 140.533 9.03516C140.26 9.32812 140.055 9.67969 139.918 10.0898C139.801 10.4805 139.742 10.8711 139.742 11.2617C139.742 11.6719 139.801 12.082 139.918 12.4922C140.055 12.8828 140.26 13.2344 140.533 13.5469C140.807 13.8398 141.129 13.9961 141.5 14.0156H151.227C151.598 13.9961 151.92 13.8398 152.193 13.5469C152.467 13.2344 152.662 12.8828 152.779 12.4922C152.916 12.082 152.984 11.6719 152.984 11.2617C152.984 10.8711 152.916 10.4805 152.779 10.0898C152.662 9.67969 152.467 9.32812 152.193 9.03516C151.92 8.72266 151.598 8.56641 151.227 8.56641H141.5Z" fill="#5429FF"/>
</svg>
